<svg xmlns="http://www.w3.org/2000/svg" xmlns:svg="http://www.w3.org/2000/svg" id="svg2" width="512" height="512" version="1.1"><metadata id="metadata7"/><g id="layer3" transform="translate(0,-540.36218)"><path id="path3044" d="m 135.45113,632.83704 310.23528,18.93812 14.48756,337.56516 -328.3845,-72.12076 z" style="fill:#aaa;fill-opacity:1;stroke:none"/></g><g id="layer1" transform="translate(0,-540.36218)"><path id="path3040" d="M 344.27357,1042.4292 461.38126,990.34201 350.31004,968.3051 z" style="fill:#ccc;fill-opacity:1;stroke:none"/><path id="path3042" d="m 461.38126,990.26688 -15.70163,-338.47635 -95.44504,11.99223 2.49004,26.85748 0,278.46619 z" style="fill:#c3c3c3;fill-opacity:1;stroke:none"/><path id="path3854" d="m 135.19796,632.92037 6.74369,12.87249 1e-5,233.39076 z" style="fill:#c3c3c3;fill-opacity:1;stroke:none"/><path id="path3856" d="m 370.79635,681.37473 -20.48631,-17.77979 -1.20728,306.51318 z" style="fill:#cecece;fill-opacity:1;stroke:none"/><path id="path3046" d="m 55.05977,646.18686 86.92534,0 -20.52403,269.45114 -76.586676,8.06289 z" style="fill:#d4d4d4;fill-opacity:1;stroke:none"/></g><g id="layer7" transform="translate(0,-540.36218)"><rect id="rect3936" width="66.395" height="136.563" x="389.102" y="547.752" transform="matrix(0.99355071,0.11338863,-0.16355495,0.98653423,0,0)" style="fill:#ff8080;fill-opacity:1;stroke:none"/><path id="path3944" d="M 321.42858,73.076466 280.26475,59.454457 250.99718,91.445552 251.23215,48.086984 211.76264,30.137665 253.0717,16.962605 257.94576,-26.12178 283.24119,9.0941536 325.72305,0.41585915 300.04742,35.355563 z" transform="matrix(1.6902144,0,0,1.4023479,-222.91409,590.96628)" style="fill:#ffd9a3;fill-opacity:1;stroke:none"/><path id="path3938" d="m 378.80721,131.10306 a 37.880722,54.548237 0 1 1 -75.76145,0 37.880722,54.548237 0 1 1 75.76145,0 z" transform="matrix(1.3784603,0.811513,-0.97809604,1.1436898,-63.680039,264.0573)" style="fill:#b1ffa3;fill-opacity:1;stroke:none"/><path id="path3940" d="M 128.14111,657.06104 290.55593,711.30779 219.03781,588.88388 z" style="fill:#9de2ff;fill-opacity:1;stroke:none"/></g><g id="layer2" transform="translate(0,-540.36218)"><path id="path3038" d="M 54.522529,646.26591 370.83408,681.32466 347.89545,1043.9317 44.86417,923.7305 z" style="fill:#e9e9e9;fill-opacity:1;stroke:none"/><path id="path3931" d="m 145.54955,692.19392 c 4.94065,8.85261 2.18898,66.00623 47.94841,75.74502 32.32047,6.87864 48.93398,-12.84401 71.98619,-64.55473" style="fill:none;stroke:#afafaf;stroke-width:12.31654167;stroke-linecap:butt;stroke-linejoin:miter;stroke-miterlimit:4;stroke-opacity:1;stroke-dasharray:none"/></g></svg>