<svg xmlns="http://www.w3.org/2000/svg" width="512" height="512" preserveAspectRatio="none slice" viewBox="0 0 512 512"><path fill="#aaa" d="M135 93l310 18.9 14.5 338-328-72.1z"/><path fill="#ccc" d="M344 500l117-50-111-22z"/><path fill="#c3c3c3" d="M461 450l-15.7-338-95.4 12 2.49 26.9v278zM135 93l6.74 12.9v233z"/><path fill="#cecece" d="M371 141l-20.5-17.8-1.21 307z"/><path fill="#d4d4d4" d="M55.1 106H142l-20.5 269-76.6 8.06z"/><g><path fill="#e9e9e9" d="M54.5 106l316 35-22 359-303-116z"/><path fill="none" stroke="#afafaf" stroke-width="12.3" d="M146 152c4.94 8.85 2.19 66 47.9 75.7 32.3 6.88 48.9-12.8 72-64.6"/></g></svg>